<?xml version="1.0" encoding="utf-8"?>
<!-- Generator: Adobe Illustrator 26.5.2, SVG Export Plug-In . SVG Version: 6.00 Build 0)  -->
<svg version="1.1" id="Ebene_1" xmlns="http://www.w3.org/2000/svg" xmlns:xlink="http://www.w3.org/1999/xlink" x="0px" y="0px"
	 viewBox="0 0 90 32.6" style="enable-background:new 0 0 90 32.6;" xml:space="preserve">
<style type="text/css">
	.st0{fill:#EF4023;}
	.st1{fill:#231F20;}
</style>
<g>
	<g>
		<path class="st0" d="M0,0.6h4.5v17.3H0V0.6z M28.4,17.9h4.5v-5.7h2.5c3.9,0,6.1-1.8,6.1-5.9c0-4-2.6-5.7-6.3-5.7h-6.9v17.3
			 M32.9,4.3h0.8c1.7,0,3.2,0,3.2,2.2c0,2.1-1.6,2.1-3.2,2.1h-0.8V4.3L32.9,4.3z M52.2,0.1c-5,0-9.6,3.7-9.6,8.9
			c0,5.6,4,9.5,9.6,9.5c5.5,0,9.6-3.9,9.6-9.5C61.7,3.7,57.2,0.1,52.2,0.1 M52.2,4.4c2.7,0,4.9,2.2,4.9,4.6c0,3-2.2,5.2-4.9,5.2
			S47.3,12,47.3,9C47.3,6.6,49.5,4.4,52.2,4.4z M72.8,10.8c2.5-0.4,3.8-2.5,3.8-4.9c0-3.7-2.6-5.3-6-5.3h-6.7v17.3h4.5v-6.6l4.2,6.6
			h5.6L72.8,10.8 M68.3,4.1h0.4c1.5,0,3.1,0.3,3.1,2.2s-1.7,2.2-3.1,2.2h-0.4V4.1z M86.3,4.4H90V0.6H78.1v3.8h3.7v13.5h4.5
			 M16.3,7.6L10.6,0L6.8,17.9h4.3l2-9.3h0.1l3.2,4.1l3.2-4.1h0.1l2,9.3H26L22.2,0"/>
	</g>
	<g>
		<path class="st1" d="M1.6,27.4h0.8c2.3,0,4.2-1,4.2-3.5c0-2.2-1.1-3.4-4.8-3.4H0.1v11.9h1.5V27.4 M1.6,21.8H2
			c1.5,0,3.2,0.2,3.2,2.1c0,1.9-1.6,2.2-3.1,2.2H1.6C1.6,26.1,1.6,21.8,1.6,21.8z M14,29.4l1.4,3H17L11.3,20L5.6,32.4h1.6l1.4-3H14
			 M13.3,28H9.1l2.1-4.8L13.3,28z M22.2,27.2c1.7-0.2,2.8-1.6,2.8-3.3c0-1.1-0.6-2.3-1.6-2.8c-0.9-0.5-2.1-0.6-3.1-0.6h-1.8v11.9H20
			v-5h0.6l3.5,5h1.8L22.2,27.2 M20,21.8h0.4c1.5,0,3.2,0.3,3.2,2.1c0,1.9-1.6,2.2-3.1,2.2H20C20,26.1,20,21.8,20,21.8z M33.5,21.8
			v-1.3h-5.8v11.9h1.5v-5.9h4.1v-1.3h-4.1v-3.4 M35.4,20.5V28c0,2.6,1.6,4.6,4.3,4.6s4.3-2,4.3-4.6v-7.5h-1.5v7
			c0,1.9-0.6,3.7-2.9,3.7s-2.9-1.8-2.9-3.7v-7H35.4z M52.2,32.6l3.5-8.1h0.1l1.4,7.9h1.5L56.3,20l-4.1,9.3L48.1,20l-2.4,12.4h1.5
			l1.4-7.9 M60.7,32.4H67V31h-4.9v-4.5h4.8v-1.3h-4.8v-3.4H67v-1.3h-6.3 M73.1,27.2c1.7-0.2,2.9-1.6,2.9-3.3c0-1.1-0.6-2.3-1.6-2.8
			c-0.9-0.5-2.1-0.6-3.1-0.6h-1.8v11.9H71v-5h0.6l3.5,5h1.8L73.1,27.2 M71,21.8h0.4c1.5,0,3.2,0.3,3.2,2.1c0,1.9-1.6,2.2-3.1,2.2H71
			V21.8L71,21.8z M78.4,20.5h1.5v11.9h-1.5V20.5z M82.8,32.4h6.4V31h-4.9v-4.5H89v-1.3h-4.7v-3.4h4.9v-1.3h-6.4"/>
	</g>
</g>
</svg>
